<?xml version="1.0" encoding="UTF-8"?>
<svg width="61px" height="61px" viewBox="0 0 61 61" version="1.1" xmlns="http://www.w3.org/2000/svg" xmlns:xlink="http://www.w3.org/1999/xlink">
    <title>EEB7686C-23AB-4FB1-A481-77CD123E3755</title>
    <g id="login" stroke="none" stroke-width="1" fill="none" fill-rule="evenodd">
        <g transform="translate(-121.000000, -620.000000)" id="social">
            <g transform="translate(49.000000, 588.000000)">
                <g id="facebook" transform="translate(72.500000, 32.173226)">
                    <rect id="Rectangle" fill="#FFFFFF" x="0" y="0" width="60" height="60" rx="20"></rect>
                    <path d="M39.375,17.5 C41.0984375,17.5 42.5,18.9015625 42.5,20.625 L42.5,20.625 L42.5,39.375 C42.5,41.0984375 41.0984375,42.5 39.375,42.5 L39.375,42.5 L34.6875,42.5 L34.6875,33.90625 L37.03125,33.90625 L38.59375,30 L34.6875,30 L34.6875,26.875 C34.6875,26.0578947 35.3157548,26.0878116 36.1152446,26.0932242 L37.8125,26.09375 L37.8125,22.1875 L34.6875,22.1875 C32.0984375,22.1875 30,24.2859375 30,26.875 L30,30 L26.875,30 L26.875,33.90625 L30,33.90625 L30,42.5 L20.625,42.5 C18.9015625,42.5 17.5,41.0984375 17.5,39.375 L17.5,39.375 L17.5,20.625 C17.5,18.9015625 18.9015625,17.5 20.625,17.5 L20.625,17.5 Z" id="f" fill="#1976D2" fill-rule="nonzero"></path>
                </g>
            </g>
        </g>
    </g>
</svg>